# xmcd CD database file
#
# Track frame offsets:
#	150
#	18073
#	39789
#	59352
#	77783
#	91202
#	112787
#	133410
#	147237
#	170044
#	187852
#
# Disc length: 2799 seconds
#
# Revision: 3
# Processed by: cddbd v1.5PL3 Copyright (c) Steve Scherf et al.
# Submitted via: CDex 1.51
#
DISCID=850aed0b
DTITLE=김동률 - 토로(吐露)
DYEAR=2004
DGENRE=Pop
TTITLE0=다시 떠나보내다
TTITLE1=사랑하지 않으니까요
TTITLE2=이제서야
TTITLE3=욕심쟁이
TTITLE4=River
TTITLE5=잔향
TTITLE6=양보
TTITLE7=신기루
TTITLE8=Deja-vu
TTITLE9=청원
TTITLE10=고별
EXTD=YEAR: 2004
EXTT0=
EXTT1=
EXTT2=
EXTT3=
EXTT4=
EXTT5=
EXTT6=
EXTT7=
EXTT8=
EXTT9=
EXTT10=
PLAYORDER=
